<svg width="953" height="939" viewBox="0 0 953 939" fill="none" xmlns="http://www.w3.org/2000/svg">
<path fill-rule="evenodd" clip-rule="evenodd" d="M472.179 183.726L222.371 327.952V616.405L472.179 760.632L721.986 616.405V327.952L472.179 183.726ZM731.986 322.179L472.179 172.179L212.371 322.179V622.179L472.179 772.179L731.986 622.179V322.179Z" stroke="#FF537C" stroke-width="10"/>
<path d="M472.415 272.415L645.62 372.415V572.415L472.415 672.415L299.21 572.415V372.415L472.415 272.415Z" stroke="#FF537C" stroke-width="20"/>
<rect x="606" y="693" width="199" height="120" stroke="#FF537C" stroke-width="20"/>
<rect x="735" y="461.339" width="199" height="120" transform="rotate(-60 735 461.339)" stroke="#7553FF" stroke-width="20"/>
<rect x="596.5" y="246.339" width="199" height="120" transform="rotate(-120 596.5 246.339)" stroke="#FF537C" stroke-width="20"/>
<rect x="337.5" y="925.339" width="199" height="120" transform="rotate(-120 337.5 925.339)" stroke="#7553FF" stroke-width="20"/>
<path d="M14 578.339L113.5 406L217.423 466L117.923 638.339L14 578.339Z" stroke="#FF537C" stroke-width="20"/>
<rect x="142" y="132" width="199" height="120" stroke="#7553FF" stroke-width="20"/>
<line x1="565.352" y1="615.592" x2="607.969" y2="689.408" stroke="#FF537C" stroke-width="20"/>
<line x1="344.622" y1="251.427" x2="385.698" y2="322.573" stroke="#7553FF" stroke-width="20"/>
<line x1="645" y1="462" x2="729" y2="462" stroke="#7553FF" stroke-width="20"/>
<line x1="222" y1="462" x2="306" y2="462" stroke="#FF537C" stroke-width="20"/>
<line x1="340.701" y1="690.211" x2="385.978" y2="611.789" stroke="#7553FF" stroke-width="20"/>
<line x1="548.443" y1="322.06" x2="591.236" y2="247.94" stroke="#FF537C" stroke-width="20"/>
<line x1="641.365" y1="562.802" x2="724.635" y2="610.878" stroke="#FF537C" stroke-width="20"/>
<line x1="641.023" y1="375.209" x2="721.977" y2="328.47" stroke="#7553FF" stroke-width="20"/>
<line x1="468" y1="276" x2="468" y2="178" stroke="#FF537C" stroke-width="20"/>
<line x1="468" y1="760" x2="468.002" y2="665.011" stroke="#7553FF" stroke-width="20"/>
<line x1="303.947" y1="374.752" x2="221.092" y2="326.915" stroke="#7553FF" stroke-width="20"/>
<line x1="312.32" y1="572.206" x2="220.68" y2="625.114" stroke="#FF537C" stroke-width="20"/>
<line x1="727.252" y1="319.983" x2="727.252" y2="596" stroke="#7553FF" stroke-width="20"/>
<line x1="645.6" y1="367" x2="645.6" y2="560" stroke="#7553FF" stroke-width="20"/>
<line x1="464.227" y1="277.16" x2="294.896" y2="374.923" stroke="#7553FF" stroke-width="20"/>
<line x1="452" y1="189.818" x2="212.138" y2="328.302" stroke="#7553FF" stroke-width="20"/>
<line x1="238.5" y1="631.461" x2="473.64" y2="767.219" stroke="#7553FF" stroke-width="20"/>
<line x1="310" y1="578.614" x2="472.639" y2="672.513" stroke="#7553FF" stroke-width="20"/>
<path d="M394.397 427.774L471 383.547L547.603 427.774V516.227L471 560.453L394.397 516.227V427.774Z" stroke="#FF537C" stroke-width="20"/>
</svg>
